<?xml version="1.0" standalone="no"?>
<!DOCTYPE svg PUBLIC "-//W3C//DTD SVG 20010904//EN"
 "http://www.w3.org/TR/2001/REC-SVG-20010904/DTD/svg10.dtd">
<svg version="1.0" xmlns="http://www.w3.org/2000/svg"
 width="260.000000pt" height="260.000000pt" viewBox="0 0 260.000000 260.000000"
 preserveAspectRatio="xMidYMid meet">
<metadata>
Created by potrace 1.11, written by Peter Selinger 2001-2013
</metadata>
<g transform="translate(0.000000,260.000000) scale(0.100000,-0.100000)"
fill="#000000" stroke="none">
<path d="M510 2218 c-31 -9 -33 -11 -15 -19 13 -5 15 -8 5 -8 -22 -1 -88 -58
-95 -81 -4 -11 -10 -18 -14 -15 -5 2 -16 -15 -25 -38 -14 -38 -16 -125 -16
-814 0 -865 -5 -810 75 -889 87 -86 18 -79 840 -79 l730 0 58 32 c31 18 57 30
57 26 0 -11 78 76 108 121 16 22 41 82 57 131 30 89 30 92 29 310 0 155 -4
229 -13 250 -7 17 -21 58 -30 91 -17 59 -90 164 -114 164 -5 0 -22 11 -38 24
-27 23 -81 39 -174 51 -22 3 -235 5 -473 5 l-432 -1 -25 25 c-46 46 -29 191
26 230 20 14 83 16 578 16 446 0 558 2 568 13 10 10 14 64 14 224 1 117 -2
216 -5 222 -3 5 2 12 11 14 10 3 -358 5 -817 5 -545 0 -847 -3 -870 -10z
m1057 -1173 c64 -9 89 -45 92 -132 2 -80 -14 -110 -80 -143 -35 -18 -59 -20
-285 -20 l-246 0 -28 30 c-32 34 -40 67 -40 164 0 80 6 94 43 104 31 8 482 6
544 -3z"/>
</g>
</svg>
